<svg width="524" height="263" viewBox="0 0 524 263" fill="none" xmlns="http://www.w3.org/2000/svg">
<rect width="524" height="263" rx="15" fill="white"/>
<line x1="254.5" x2="254.5" y2="263" stroke="black" stroke-opacity="0.24"/>
<line x1="-0.000488281" y1="118" x2="524" y2="118" stroke="black" stroke-opacity="0.24"/>
<line y1="166.5" x2="524.001" y2="166.5" stroke="black" stroke-opacity="0.24"/>
<line y1="213.5" x2="524.001" y2="213.5" stroke="black" stroke-opacity="0.24"/>
<rect width="524" height="68" rx="10" fill="#D9D9D9" fill-opacity="0.28"/>
<path d="M89.992 42V25.2H98.2C100.312 25.2 101.896 25.6 102.952 26.4C104.024 27.2 104.56 28.256 104.56 29.568C104.56 30.448 104.344 31.216 103.912 31.872C103.48 32.512 102.888 33.008 102.136 33.36C101.384 33.712 100.52 33.888 99.544 33.888L100 32.904C101.056 32.904 101.992 33.08 102.808 33.432C103.624 33.768 104.256 34.272 104.704 34.944C105.168 35.616 105.4 36.44 105.4 37.416C105.4 38.856 104.832 39.984 103.696 40.8C102.56 41.6 100.888 42 98.68 42H89.992ZM93.856 39.072H98.392C99.4 39.072 100.16 38.912 100.672 38.592C101.2 38.256 101.464 37.728 101.464 37.008C101.464 36.304 101.2 35.784 100.672 35.448C100.16 35.096 99.4 34.92 98.392 34.92H93.568V32.088H97.72C98.664 32.088 99.384 31.928 99.88 31.608C100.392 31.272 100.648 30.768 100.648 30.096C100.648 29.44 100.392 28.952 99.88 28.632C99.384 28.296 98.664 28.128 97.72 28.128H93.856V39.072ZM108.344 42V25.2H111.56L118.712 37.056H117.008L124.04 25.2H127.232L127.28 42H123.632L123.608 30.792H124.28L118.664 40.224H116.912L111.176 30.792H111.992V42H108.344ZM131.265 42V25.2H135.153V42H131.265Z" fill="black" fill-opacity="0.85"/>
<path d="M302.024 42L296.528 25.2H300.56L305.336 40.08H303.32L308.312 25.2H311.912L316.712 40.08H314.768L319.664 25.2H323.384L317.888 42H313.712L309.464 28.944H310.568L306.2 42H302.024ZM330.738 42.192C329.266 42.192 327.97 41.904 326.85 41.328C325.746 40.752 324.89 39.968 324.282 38.976C323.674 37.968 323.37 36.824 323.37 35.544C323.37 34.248 323.666 33.104 324.258 32.112C324.866 31.104 325.69 30.32 326.73 29.76C327.77 29.184 328.946 28.896 330.258 28.896C331.522 28.896 332.658 29.168 333.666 29.712C334.69 30.24 335.498 31.008 336.09 32.016C336.682 33.008 336.978 34.2 336.978 35.592C336.978 35.736 336.97 35.904 336.954 36.096C336.938 36.272 336.922 36.44 336.906 36.6H326.418V34.416H334.938L333.498 35.064C333.498 34.392 333.362 33.808 333.09 33.312C332.818 32.816 332.442 32.432 331.962 32.16C331.482 31.872 330.922 31.728 330.282 31.728C329.642 31.728 329.074 31.872 328.578 32.16C328.098 32.432 327.722 32.824 327.45 33.336C327.178 33.832 327.042 34.424 327.042 35.112V35.688C327.042 36.392 327.194 37.016 327.498 37.56C327.818 38.088 328.258 38.496 328.818 38.784C329.394 39.056 330.066 39.192 330.834 39.192C331.522 39.192 332.122 39.088 332.634 38.88C333.162 38.672 333.642 38.36 334.074 37.944L336.066 40.104C335.474 40.776 334.73 41.296 333.834 41.664C332.938 42.016 331.906 42.192 330.738 42.192ZM339.47 42V29.088H343.214V42H339.47ZM341.342 27.288C340.654 27.288 340.094 27.088 339.662 26.688C339.23 26.288 339.014 25.792 339.014 25.2C339.014 24.608 339.23 24.112 339.662 23.712C340.094 23.312 340.654 23.112 341.342 23.112C342.03 23.112 342.59 23.304 343.022 23.688C343.454 24.056 343.67 24.536 343.67 25.128C343.67 25.752 343.454 26.272 343.022 26.688C342.606 27.088 342.046 27.288 341.342 27.288ZM352.761 46.848C351.545 46.848 350.369 46.696 349.233 46.392C348.113 46.104 347.177 45.664 346.425 45.072L347.913 42.384C348.457 42.832 349.145 43.184 349.977 43.44C350.825 43.712 351.657 43.848 352.473 43.848C353.801 43.848 354.761 43.552 355.353 42.96C355.961 42.368 356.265 41.488 356.265 40.32V38.376L356.505 35.136L356.457 31.872V29.088H360.009V39.84C360.009 42.24 359.385 44.008 358.137 45.144C356.889 46.28 355.097 46.848 352.761 46.848ZM352.185 41.376C350.985 41.376 349.897 41.12 348.921 40.608C347.961 40.08 347.185 39.352 346.593 38.424C346.017 37.48 345.729 36.384 345.729 35.136C345.729 33.872 346.017 32.776 346.593 31.848C347.185 30.904 347.961 30.176 348.921 29.664C349.897 29.152 350.985 28.896 352.185 28.896C353.273 28.896 354.233 29.12 355.065 29.568C355.897 30 356.545 30.68 357.009 31.608C357.473 32.52 357.705 33.696 357.705 35.136C357.705 36.56 357.473 37.736 357.009 38.664C356.545 39.576 355.897 40.256 355.065 40.704C354.233 41.152 353.273 41.376 352.185 41.376ZM352.929 38.304C353.585 38.304 354.169 38.176 354.681 37.92C355.193 37.648 355.593 37.272 355.881 36.792C356.169 36.312 356.313 35.76 356.313 35.136C356.313 34.496 356.169 33.944 355.881 33.48C355.593 33 355.193 32.632 354.681 32.376C354.169 32.104 353.585 31.968 352.929 31.968C352.273 31.968 351.689 32.104 351.177 32.376C350.665 32.632 350.257 33 349.953 33.48C349.665 33.944 349.521 34.496 349.521 35.136C349.521 35.76 349.665 36.312 349.953 36.792C350.257 37.272 350.665 37.648 351.177 37.92C351.689 38.176 352.273 38.304 352.929 38.304ZM371.342 28.896C372.366 28.896 373.278 29.104 374.078 29.52C374.894 29.92 375.534 30.544 375.998 31.392C376.462 32.224 376.694 33.296 376.694 34.608V42H372.95V35.184C372.95 34.144 372.718 33.376 372.254 32.88C371.806 32.384 371.166 32.136 370.334 32.136C369.742 32.136 369.206 32.264 368.726 32.52C368.262 32.76 367.894 33.136 367.622 33.648C367.366 34.16 367.238 34.816 367.238 35.616V42H363.494V24.192H367.238V32.664L366.398 31.584C366.862 30.72 367.526 30.056 368.39 29.592C369.254 29.128 370.238 28.896 371.342 28.896ZM385.367 42.192C383.847 42.192 382.663 41.808 381.815 41.04C380.967 40.256 380.543 39.096 380.543 37.56V26.232H384.287V37.512C384.287 38.056 384.431 38.48 384.719 38.784C385.007 39.072 385.399 39.216 385.895 39.216C386.487 39.216 386.991 39.056 387.407 38.736L388.415 41.376C388.031 41.648 387.567 41.856 387.023 42C386.495 42.128 385.943 42.192 385.367 42.192ZM378.551 32.256V29.376H387.503V32.256H378.551ZM403.098 42.288C401.754 42.288 400.466 42.112 399.234 41.76C398.002 41.392 397.01 40.92 396.258 40.344L397.578 37.416C398.298 37.928 399.146 38.352 400.122 38.688C401.114 39.008 402.114 39.168 403.122 39.168C403.89 39.168 404.506 39.096 404.97 38.952C405.45 38.792 405.802 38.576 406.026 38.304C406.25 38.032 406.362 37.72 406.362 37.368C406.362 36.92 406.186 36.568 405.834 36.312C405.482 36.04 405.018 35.824 404.442 35.664C403.866 35.488 403.226 35.328 402.522 35.184C401.834 35.024 401.138 34.832 400.434 34.608C399.746 34.384 399.114 34.096 398.538 33.744C397.962 33.392 397.49 32.928 397.122 32.352C396.77 31.776 396.594 31.04 396.594 30.144C396.594 29.184 396.85 28.312 397.362 27.528C397.89 26.728 398.674 26.096 399.714 25.632C400.77 25.152 402.09 24.912 403.674 24.912C404.73 24.912 405.77 25.04 406.794 25.296C407.818 25.536 408.722 25.904 409.506 26.4L408.306 29.352C407.522 28.904 406.738 28.576 405.954 28.368C405.17 28.144 404.402 28.032 403.65 28.032C402.898 28.032 402.282 28.12 401.802 28.296C401.322 28.472 400.978 28.704 400.77 28.992C400.562 29.264 400.458 29.584 400.458 29.952C400.458 30.384 400.634 30.736 400.986 31.008C401.338 31.264 401.802 31.472 402.378 31.632C402.954 31.792 403.586 31.952 404.274 32.112C404.978 32.272 405.674 32.456 406.362 32.664C407.066 32.872 407.706 33.152 408.282 33.504C408.858 33.856 409.322 34.32 409.674 34.896C410.042 35.472 410.226 36.2 410.226 37.08C410.226 38.024 409.962 38.888 409.434 39.672C408.906 40.456 408.114 41.088 407.058 41.568C406.018 42.048 404.698 42.288 403.098 42.288ZM417.899 42.192C416.379 42.192 415.195 41.808 414.347 41.04C413.499 40.256 413.075 39.096 413.075 37.56V26.232H416.819V37.512C416.819 38.056 416.963 38.48 417.251 38.784C417.539 39.072 417.931 39.216 418.427 39.216C419.019 39.216 419.523 39.056 419.939 38.736L420.947 41.376C420.563 41.648 420.099 41.856 419.555 42C419.027 42.128 418.475 42.192 417.899 42.192ZM411.083 32.256V29.376H420.035V32.256H411.083ZM430.968 42V39.48L430.728 38.928V34.416C430.728 33.616 430.48 32.992 429.984 32.544C429.504 32.096 428.76 31.872 427.752 31.872C427.064 31.872 426.384 31.984 425.712 32.208C425.056 32.416 424.496 32.704 424.032 33.072L422.688 30.456C423.392 29.96 424.24 29.576 425.232 29.304C426.224 29.032 427.232 28.896 428.256 28.896C430.224 28.896 431.752 29.36 432.84 30.288C433.928 31.216 434.472 32.664 434.472 34.632V42H430.968ZM427.032 42.192C426.024 42.192 425.16 42.024 424.44 41.688C423.72 41.336 423.168 40.864 422.784 40.272C422.4 39.68 422.208 39.016 422.208 38.28C422.208 37.512 422.392 36.84 422.76 36.264C423.144 35.688 423.744 35.24 424.56 34.92C425.376 34.584 426.44 34.416 427.752 34.416H431.184V36.6H428.16C427.28 36.6 426.672 36.744 426.336 37.032C426.016 37.32 425.856 37.68 425.856 38.112C425.856 38.592 426.04 38.976 426.408 39.264C426.792 39.536 427.312 39.672 427.968 39.672C428.592 39.672 429.152 39.528 429.648 39.24C430.144 38.936 430.504 38.496 430.728 37.92L431.304 39.648C431.032 40.48 430.536 41.112 429.816 41.544C429.096 41.976 428.168 42.192 427.032 42.192ZM443.141 42.192C441.621 42.192 440.437 41.808 439.589 41.04C438.741 40.256 438.317 39.096 438.317 37.56V26.232H442.061V37.512C442.061 38.056 442.205 38.48 442.493 38.784C442.781 39.072 443.173 39.216 443.669 39.216C444.261 39.216 444.765 39.056 445.181 38.736L446.189 41.376C445.805 41.648 445.341 41.856 444.797 42C444.269 42.128 443.717 42.192 443.141 42.192ZM436.325 32.256V29.376H445.277V32.256H436.325ZM453.739 42.192C452.667 42.192 451.707 41.984 450.859 41.568C450.027 41.152 449.379 40.52 448.915 39.672C448.451 38.808 448.219 37.712 448.219 36.384V29.088H451.963V35.832C451.963 36.904 452.187 37.696 452.635 38.208C453.099 38.704 453.747 38.952 454.579 38.952C455.155 38.952 455.667 38.832 456.115 38.592C456.563 38.336 456.915 37.952 457.171 37.44C457.427 36.912 457.555 36.256 457.555 35.472V29.088H461.299V42H457.747V38.448L458.395 39.48C457.963 40.376 457.323 41.056 456.475 41.52C455.643 41.968 454.731 42.192 453.739 42.192ZM469.111 42.192C468.007 42.192 466.943 42.064 465.919 41.808C464.911 41.536 464.111 41.2 463.519 40.8L464.767 38.112C465.359 38.48 466.055 38.784 466.855 39.024C467.671 39.248 468.471 39.36 469.255 39.36C470.119 39.36 470.727 39.256 471.079 39.048C471.447 38.84 471.631 38.552 471.631 38.184C471.631 37.88 471.487 37.656 471.199 37.512C470.927 37.352 470.559 37.232 470.095 37.152C469.631 37.072 469.119 36.992 468.559 36.912C468.015 36.832 467.463 36.728 466.903 36.6C466.343 36.456 465.831 36.248 465.367 35.976C464.903 35.704 464.527 35.336 464.239 34.872C463.967 34.408 463.831 33.808 463.831 33.072C463.831 32.256 464.063 31.536 464.527 30.912C465.007 30.288 465.695 29.8 466.591 29.448C467.487 29.08 468.559 28.896 469.807 28.896C470.687 28.896 471.583 28.992 472.495 29.184C473.407 29.376 474.167 29.656 474.775 30.024L473.527 32.688C472.903 32.32 472.271 32.072 471.631 31.944C471.007 31.8 470.399 31.728 469.807 31.728C468.975 31.728 468.367 31.84 467.983 32.064C467.599 32.288 467.407 32.576 467.407 32.928C467.407 33.248 467.543 33.488 467.815 33.648C468.103 33.808 468.479 33.936 468.943 34.032C469.407 34.128 469.911 34.216 470.455 34.296C471.015 34.36 471.575 34.464 472.135 34.608C472.695 34.752 473.199 34.96 473.647 35.232C474.111 35.488 474.487 35.848 474.775 36.312C475.063 36.76 475.207 37.352 475.207 38.088C475.207 38.888 474.967 39.6 474.487 40.224C474.007 40.832 473.311 41.312 472.399 41.664C471.503 42.016 470.407 42.192 469.111 42.192Z" fill="black" fill-opacity="0.85"/>
<path d="M60.88 95V81H67.44C69.12 81 70.4 81.3333 71.28 82C72.16 82.6533 72.6 83.5333 72.6 84.64C72.6 85.3867 72.4267 86.0267 72.08 86.56C71.7333 87.08 71.2667 87.4867 70.68 87.78C70.1067 88.06 69.48 88.2 68.8 88.2L69.16 87.48C69.9467 87.48 70.6533 87.6267 71.28 87.92C71.9067 88.2 72.4 88.6133 72.76 89.16C73.1333 89.7067 73.32 90.3867 73.32 91.2C73.32 92.4 72.86 93.3333 71.94 94C71.02 94.6667 69.6533 95 67.84 95H60.88ZM63.48 92.96H67.68C68.6533 92.96 69.4 92.8 69.92 92.48C70.44 92.16 70.7 91.6467 70.7 90.94C70.7 90.2467 70.44 89.74 69.92 89.42C69.4 89.0867 68.6533 88.92 67.68 88.92H63.28V86.9H67.16C68.0667 86.9 68.76 86.74 69.24 86.42C69.7333 86.1 69.98 85.62 69.98 84.98C69.98 84.3267 69.7333 83.84 69.24 83.52C68.76 83.2 68.0667 83.04 67.16 83.04H63.48V92.96ZM80.8748 95.14C79.6882 95.14 78.6482 94.9067 77.7548 94.44C76.8748 93.96 76.1882 93.3067 75.6948 92.48C75.2148 91.6533 74.9748 90.7133 74.9748 89.66C74.9748 88.5933 75.2082 87.6533 75.6748 86.84C76.1548 86.0133 76.8082 85.3667 77.6348 84.9C78.4748 84.4333 79.4282 84.2 80.4948 84.2C81.5348 84.2 82.4615 84.4267 83.2748 84.88C84.0882 85.3333 84.7282 85.9733 85.1948 86.8C85.6615 87.6267 85.8948 88.6 85.8948 89.72C85.8948 89.8267 85.8882 89.9467 85.8748 90.08C85.8748 90.2133 85.8682 90.34 85.8548 90.46H76.9548V88.8H84.5348L83.5548 89.32C83.5682 88.7067 83.4415 88.1667 83.1748 87.7C82.9082 87.2333 82.5415 86.8667 82.0748 86.6C81.6215 86.3333 81.0948 86.2 80.4948 86.2C79.8815 86.2 79.3415 86.3333 78.8748 86.6C78.4215 86.8667 78.0615 87.24 77.7948 87.72C77.5415 88.1867 77.4148 88.74 77.4148 89.38V89.78C77.4148 90.42 77.5615 90.9867 77.8548 91.48C78.1482 91.9733 78.5615 92.3533 79.0948 92.62C79.6282 92.8867 80.2415 93.02 80.9348 93.02C81.5348 93.02 82.0748 92.9267 82.5548 92.74C83.0348 92.5533 83.4615 92.26 83.8348 91.86L85.1748 93.4C84.6948 93.96 84.0882 94.3933 83.3548 94.7C82.6348 94.9933 81.8082 95.14 80.8748 95.14ZM88.2963 95V80.16H90.7963V95H88.2963ZM98.8775 95.14C97.7842 95.14 96.8108 94.9067 95.9575 94.44C95.1042 93.96 94.4308 93.3067 93.9375 92.48C93.4442 91.6533 93.1975 90.7133 93.1975 89.66C93.1975 88.5933 93.4442 87.6533 93.9375 86.84C94.4308 86.0133 95.1042 85.3667 95.9575 84.9C96.8108 84.4333 97.7842 84.2 98.8775 84.2C99.9842 84.2 100.964 84.4333 101.818 84.9C102.684 85.3667 103.358 86.0067 103.838 86.82C104.331 87.6333 104.578 88.58 104.578 89.66C104.578 90.7133 104.331 91.6533 103.838 92.48C103.358 93.3067 102.684 93.96 101.818 94.44C100.964 94.9067 99.9842 95.14 98.8775 95.14ZM98.8775 93C99.4908 93 100.038 92.8667 100.518 92.6C100.998 92.3333 101.371 91.9467 101.638 91.44C101.918 90.9333 102.058 90.34 102.058 89.66C102.058 88.9667 101.918 88.3733 101.638 87.88C101.371 87.3733 100.998 86.9867 100.518 86.72C100.038 86.4533 99.4975 86.32 98.8975 86.32C98.2842 86.32 97.7375 86.4533 97.2575 86.72C96.7908 86.9867 96.4175 87.3733 96.1375 87.88C95.8575 88.3733 95.7175 88.9667 95.7175 89.66C95.7175 90.34 95.8575 90.9333 96.1375 91.44C96.4175 91.9467 96.7908 92.3333 97.2575 92.6C97.7375 92.8667 98.2775 93 98.8775 93ZM109.035 95L105.115 84.32H107.475L110.835 93.74H109.715L113.235 84.32H115.335L118.755 93.74H117.655L121.115 84.32H123.335L119.395 95H116.995L113.875 86.66H114.615L111.435 95H109.035ZM132.061 95V82L133.201 83.18H129.101V81H134.661V95H132.061ZM143.059 95.2C141.899 95.2 140.892 95.0267 140.039 94.68C139.185 94.3333 138.525 93.8467 138.059 93.22C137.592 92.58 137.359 91.8333 137.359 90.98C137.359 90.1267 137.585 89.4067 138.039 88.82C138.492 88.2333 139.145 87.7867 139.999 87.48C140.852 87.1733 141.872 87.02 143.059 87.02C144.245 87.02 145.265 87.1733 146.119 87.48C146.985 87.7867 147.645 88.24 148.099 88.84C148.565 89.4267 148.799 90.14 148.799 90.98C148.799 91.8333 148.559 92.58 148.079 93.22C147.612 93.8467 146.945 94.3333 146.079 94.68C145.225 95.0267 144.219 95.2 143.059 95.2ZM143.059 93.16C144.019 93.16 144.779 92.96 145.339 92.56C145.899 92.16 146.179 91.6067 146.179 90.9C146.179 90.2067 145.899 89.66 145.339 89.26C144.779 88.86 144.019 88.66 143.059 88.66C142.099 88.66 141.345 88.86 140.799 89.26C140.252 89.66 139.979 90.2067 139.979 90.9C139.979 91.6067 140.252 92.16 140.799 92.56C141.345 92.96 142.099 93.16 143.059 93.16ZM143.059 88.38C141.979 88.38 141.052 88.24 140.279 87.96C139.505 87.6667 138.905 87.2467 138.479 86.7C138.065 86.14 137.859 85.4733 137.859 84.7C137.859 83.9 138.072 83.2133 138.499 82.64C138.939 82.0533 139.552 81.6 140.339 81.28C141.125 80.96 142.032 80.8 143.059 80.8C144.099 80.8 145.012 80.96 145.799 81.28C146.585 81.6 147.199 82.0533 147.639 82.64C148.079 83.2133 148.299 83.9 148.299 84.7C148.299 85.4733 148.085 86.14 147.659 86.7C147.245 87.2467 146.645 87.6667 145.859 87.96C145.072 88.24 144.139 88.38 143.059 88.38ZM143.059 86.78C143.885 86.78 144.539 86.6067 145.019 86.26C145.499 85.9 145.739 85.42 145.739 84.82C145.739 84.1933 145.492 83.7067 144.999 83.36C144.505 83.0133 143.859 82.84 143.059 82.84C142.259 82.84 141.619 83.0133 141.139 83.36C140.659 83.7067 140.419 84.1933 140.419 84.82C140.419 85.42 140.652 85.9 141.119 86.26C141.599 86.6067 142.245 86.78 143.059 86.78ZM152.241 95.14C151.787 95.14 151.401 94.9867 151.081 94.68C150.761 94.36 150.601 93.96 150.601 93.48C150.601 92.9733 150.761 92.5733 151.081 92.28C151.401 91.9733 151.787 91.82 152.241 91.82C152.694 91.82 153.081 91.9733 153.401 92.28C153.721 92.5733 153.881 92.9733 153.881 93.48C153.881 93.96 153.721 94.36 153.401 94.68C153.081 94.9867 152.694 95.14 152.241 95.14ZM160.204 95.2C159.217 95.2 158.25 95.06 157.304 94.78C156.37 94.4867 155.584 94.0867 154.944 93.58L156.044 91.56C156.55 91.9733 157.164 92.3067 157.884 92.56C158.617 92.8133 159.377 92.94 160.164 92.94C161.084 92.94 161.804 92.7467 162.324 92.36C162.857 91.9733 163.124 91.4533 163.124 90.8C163.124 90.36 163.01 89.9733 162.784 89.64C162.57 89.3067 162.184 89.0533 161.624 88.88C161.077 88.7067 160.324 88.62 159.364 88.62H155.984L156.704 81H164.924V83.18H157.664L159.024 81.94L158.484 87.64L157.124 86.42H159.944C161.33 86.42 162.444 86.6067 163.284 86.98C164.137 87.34 164.757 87.8467 165.144 88.5C165.544 89.14 165.744 89.8733 165.744 90.7C165.744 91.5133 165.544 92.26 165.144 92.94C164.744 93.62 164.13 94.1667 163.304 94.58C162.49 94.9933 161.457 95.2 160.204 95.2Z" fill="black" fill-opacity="0.85"/>
<path d="M62.7 197V195.26L68.26 189.98C68.7267 189.54 69.0733 189.153 69.3 188.82C69.5267 188.487 69.6733 188.18 69.74 187.9C69.82 187.607 69.86 187.333 69.86 187.08C69.86 186.44 69.64 185.947 69.2 185.6C68.76 185.24 68.1133 185.06 67.26 185.06C66.58 185.06 65.96 185.18 65.4 185.42C64.8533 185.66 64.38 186.027 63.98 186.52L62.16 185.12C62.7067 184.387 63.44 183.82 64.36 183.42C65.2933 183.007 66.3333 182.8 67.48 182.8C68.4933 182.8 69.3733 182.967 70.12 183.3C70.88 183.62 71.46 184.08 71.86 184.68C72.2733 185.28 72.48 185.993 72.48 186.82C72.48 187.273 72.42 187.727 72.3 188.18C72.18 188.62 71.9533 189.087 71.62 189.58C71.2867 190.073 70.8 190.627 70.16 191.24L65.38 195.78L64.84 194.8H73.02V197H62.7ZM79.1606 197.2C78.174 197.2 77.2073 197.06 76.2606 196.78C75.3273 196.487 74.5406 196.087 73.9006 195.58L75.0006 193.56C75.5073 193.973 76.1206 194.307 76.8406 194.56C77.574 194.813 78.334 194.94 79.1206 194.94C80.0406 194.94 80.7606 194.747 81.2806 194.36C81.814 193.973 82.0806 193.453 82.0806 192.8C82.0806 192.36 81.9673 191.973 81.7406 191.64C81.5273 191.307 81.1406 191.053 80.5806 190.88C80.034 190.707 79.2806 190.62 78.3206 190.62H74.9406L75.6606 183H83.8806V185.18H76.6206L77.9806 183.94L77.4406 189.64L76.0806 188.42H78.9006C80.2873 188.42 81.4006 188.607 82.2406 188.98C83.094 189.34 83.714 189.847 84.1006 190.5C84.5006 191.14 84.7006 191.873 84.7006 192.7C84.7006 193.513 84.5006 194.26 84.1006 194.94C83.7006 195.62 83.0873 196.167 82.2606 196.58C81.4473 196.993 80.414 197.2 79.1606 197.2ZM87.7603 197.14C87.307 197.14 86.9203 196.987 86.6003 196.68C86.2803 196.36 86.1203 195.96 86.1203 195.48C86.1203 194.973 86.2803 194.573 86.6003 194.28C86.9203 193.973 87.307 193.82 87.7603 193.82C88.2136 193.82 88.6003 193.973 88.9203 194.28C89.2403 194.573 89.4003 194.973 89.4003 195.48C89.4003 195.96 89.2403 196.36 88.9203 196.68C88.6003 196.987 88.2136 197.14 87.7603 197.14ZM96.6888 197.2C95.5821 197.2 94.5821 196.92 93.6888 196.36C92.8088 195.8 92.1154 194.987 91.6088 193.92C91.1021 192.84 90.8488 191.533 90.8488 190C90.8488 188.467 91.1021 187.167 91.6088 186.1C92.1154 185.02 92.8088 184.2 93.6888 183.64C94.5821 183.08 95.5821 182.8 96.6888 182.8C97.8088 182.8 98.8088 183.08 99.6888 183.64C100.569 184.2 101.262 185.02 101.769 186.1C102.289 187.167 102.549 188.467 102.549 190C102.549 191.533 102.289 192.84 101.769 193.92C101.262 194.987 100.569 195.8 99.6888 196.36C98.8088 196.92 97.8088 197.2 96.6888 197.2ZM96.6888 194.94C97.3421 194.94 97.9088 194.767 98.3888 194.42C98.8688 194.06 99.2421 193.513 99.5088 192.78C99.7888 192.047 99.9288 191.12 99.9288 190C99.9288 188.867 99.7888 187.94 99.5088 187.22C99.2421 186.487 98.8688 185.947 98.3888 185.6C97.9088 185.24 97.3421 185.06 96.6888 185.06C96.0621 185.06 95.5021 185.24 95.0088 185.6C94.5288 185.947 94.1488 186.487 93.8688 187.22C93.6021 187.94 93.4688 188.867 93.4688 190C93.4688 191.12 93.6021 192.047 93.8688 192.78C94.1488 193.513 94.5288 194.06 95.0088 194.42C95.5021 194.767 96.0621 194.94 96.6888 194.94ZM110.053 192.48V190.4H115.553V192.48H110.053ZM122.876 197V195.26L128.436 189.98C128.902 189.54 129.249 189.153 129.476 188.82C129.702 188.487 129.849 188.18 129.916 187.9C129.996 187.607 130.036 187.333 130.036 187.08C130.036 186.44 129.816 185.947 129.376 185.6C128.936 185.24 128.289 185.06 127.436 185.06C126.756 185.06 126.136 185.18 125.576 185.42C125.029 185.66 124.556 186.027 124.156 186.52L122.336 185.12C122.882 184.387 123.616 183.82 124.536 183.42C125.469 183.007 126.509 182.8 127.656 182.8C128.669 182.8 129.549 182.967 130.296 183.3C131.056 183.62 131.636 184.08 132.036 184.68C132.449 185.28 132.656 185.993 132.656 186.82C132.656 187.273 132.596 187.727 132.476 188.18C132.356 188.62 132.129 189.087 131.796 189.58C131.462 190.073 130.976 190.627 130.336 191.24L125.556 195.78L125.016 194.8H133.196V197H122.876ZM139.416 182.8C140.696 182.8 141.783 183.073 142.676 183.62C143.583 184.153 144.276 184.933 144.756 185.96C145.236 186.987 145.476 188.253 145.476 189.76C145.476 191.36 145.183 192.713 144.596 193.82C144.023 194.927 143.223 195.767 142.196 196.34C141.17 196.913 139.976 197.2 138.616 197.2C137.91 197.2 137.236 197.127 136.596 196.98C135.956 196.833 135.403 196.607 134.936 196.3L135.896 194.34C136.283 194.593 136.703 194.773 137.156 194.88C137.61 194.973 138.076 195.02 138.556 195.02C139.876 195.02 140.923 194.613 141.696 193.8C142.47 192.987 142.856 191.787 142.856 190.2C142.856 189.947 142.85 189.653 142.836 189.32C142.823 188.973 142.776 188.627 142.696 188.28L143.496 189.16C143.27 189.707 142.943 190.167 142.516 190.54C142.09 190.9 141.59 191.173 141.016 191.36C140.443 191.547 139.81 191.64 139.116 191.64C138.21 191.64 137.39 191.467 136.656 191.12C135.936 190.76 135.363 190.26 134.936 189.62C134.51 188.967 134.296 188.207 134.296 187.34C134.296 186.407 134.523 185.607 134.976 184.94C135.43 184.26 136.043 183.733 136.816 183.36C137.603 182.987 138.47 182.8 139.416 182.8ZM139.556 184.84C139.023 184.84 138.55 184.94 138.136 185.14C137.723 185.327 137.396 185.6 137.156 185.96C136.93 186.307 136.816 186.727 136.816 187.22C136.816 187.953 137.07 188.533 137.576 188.96C138.083 189.387 138.763 189.6 139.616 189.6C140.176 189.6 140.67 189.5 141.096 189.3C141.523 189.087 141.856 188.8 142.096 188.44C142.336 188.067 142.456 187.653 142.456 187.2C142.456 186.76 142.343 186.367 142.116 186.02C141.89 185.66 141.563 185.373 141.136 185.16C140.71 184.947 140.183 184.84 139.556 184.84ZM148.561 197.14C148.108 197.14 147.721 196.987 147.401 196.68C147.081 196.36 146.921 195.96 146.921 195.48C146.921 194.973 147.081 194.573 147.401 194.28C147.721 193.973 148.108 193.82 148.561 193.82C149.014 193.82 149.401 193.973 149.721 194.28C150.041 194.573 150.201 194.973 150.201 195.48C150.201 195.96 150.041 196.36 149.721 196.68C149.401 196.987 149.014 197.14 148.561 197.14ZM156.604 182.8C157.884 182.8 158.971 183.073 159.864 183.62C160.771 184.153 161.464 184.933 161.944 185.96C162.424 186.987 162.664 188.253 162.664 189.76C162.664 191.36 162.371 192.713 161.784 193.82C161.211 194.927 160.411 195.767 159.384 196.34C158.357 196.913 157.164 197.2 155.804 197.2C155.097 197.2 154.424 197.127 153.784 196.98C153.144 196.833 152.591 196.607 152.124 196.3L153.084 194.34C153.471 194.593 153.891 194.773 154.344 194.88C154.797 194.973 155.264 195.02 155.744 195.02C157.064 195.02 158.111 194.613 158.884 193.8C159.657 192.987 160.044 191.787 160.044 190.2C160.044 189.947 160.037 189.653 160.024 189.32C160.011 188.973 159.964 188.627 159.884 188.28L160.684 189.16C160.457 189.707 160.131 190.167 159.704 190.54C159.277 190.9 158.777 191.173 158.204 191.36C157.631 191.547 156.997 191.64 156.304 191.64C155.397 191.64 154.577 191.467 153.844 191.12C153.124 190.76 152.551 190.26 152.124 189.62C151.697 188.967 151.484 188.207 151.484 187.34C151.484 186.407 151.711 185.607 152.164 184.94C152.617 184.26 153.231 183.733 154.004 183.36C154.791 182.987 155.657 182.8 156.604 182.8ZM156.744 184.84C156.211 184.84 155.737 184.94 155.324 185.14C154.911 185.327 154.584 185.6 154.344 185.96C154.117 186.307 154.004 186.727 154.004 187.22C154.004 187.953 154.257 188.533 154.764 188.96C155.271 189.387 155.951 189.6 156.804 189.6C157.364 189.6 157.857 189.5 158.284 189.3C158.711 189.087 159.044 188.8 159.284 188.44C159.524 188.067 159.644 187.653 159.644 187.2C159.644 186.76 159.531 186.367 159.304 186.02C159.077 185.66 158.751 185.373 158.324 185.16C157.897 184.947 157.371 184.84 156.744 184.84Z" fill="black" fill-opacity="0.85"/>
<path d="M324.9 102.2C322.98 102.2 321.473 101.66 320.38 100.58C319.3 99.5 318.76 97.94 318.76 95.9V88H321.36V95.8C321.36 97.24 321.667 98.2867 322.28 98.94C322.907 99.5933 323.787 99.92 324.92 99.92C326.053 99.92 326.927 99.5933 327.54 98.94C328.153 98.2867 328.46 97.24 328.46 95.8V88H331.02V95.9C331.02 97.94 330.473 99.5 329.38 100.58C328.3 101.66 326.807 102.2 324.9 102.2ZM340.481 91.2C341.335 91.2 342.095 91.3667 342.761 91.7C343.441 92.0333 343.975 92.5467 344.361 93.24C344.748 93.92 344.941 94.8 344.941 95.88V102H342.441V96.2C342.441 95.2533 342.215 94.5467 341.761 94.08C341.321 93.6133 340.701 93.38 339.901 93.38C339.315 93.38 338.795 93.5 338.341 93.74C337.888 93.98 337.535 94.34 337.281 94.82C337.041 95.2867 336.921 95.88 336.921 96.6V102H334.421V91.32H336.801V94.2L336.381 93.32C336.755 92.64 337.295 92.12 338.001 91.76C338.721 91.3867 339.548 91.2 340.481 91.2ZM352.652 102.14C351.626 102.14 350.699 101.913 349.872 101.46C349.059 100.993 348.419 100.353 347.952 99.54C347.486 98.7267 347.252 97.7667 347.252 96.66C347.252 95.5533 347.486 94.5933 347.952 93.78C348.419 92.9667 349.059 92.3333 349.872 91.88C350.699 91.4267 351.626 91.2 352.652 91.2C353.546 91.2 354.346 91.4 355.052 91.8C355.759 92.1867 356.319 92.78 356.732 93.58C357.146 94.38 357.352 95.4067 357.352 96.66C357.352 97.9 357.152 98.9267 356.752 99.74C356.352 100.54 355.799 101.14 355.092 101.54C354.386 101.94 353.572 102.14 352.652 102.14ZM352.952 100C353.552 100 354.086 99.8667 354.552 99.6C355.032 99.3333 355.412 98.9467 355.692 98.44C355.986 97.9333 356.132 97.34 356.132 96.66C356.132 95.9667 355.986 95.3733 355.692 94.88C355.412 94.3733 355.032 93.9867 354.552 93.72C354.086 93.4533 353.552 93.32 352.952 93.32C352.352 93.32 351.812 93.4533 351.332 93.72C350.866 93.9867 350.486 94.3733 350.192 94.88C349.912 95.3733 349.772 95.9667 349.772 96.66C349.772 97.34 349.912 97.9333 350.192 98.44C350.486 98.9467 350.866 99.3333 351.332 99.6C351.812 99.8667 352.352 100 352.952 100ZM356.192 102V99.48L356.292 96.64L356.092 93.8V87.16H358.572V102H356.192ZM366.883 102.14C365.696 102.14 364.656 101.907 363.763 101.44C362.883 100.96 362.196 100.307 361.703 99.48C361.223 98.6533 360.983 97.7133 360.983 96.66C360.983 95.5933 361.216 94.6533 361.683 93.84C362.163 93.0133 362.816 92.3667 363.643 91.9C364.483 91.4333 365.436 91.2 366.503 91.2C367.543 91.2 368.469 91.4267 369.283 91.88C370.096 92.3333 370.736 92.9733 371.203 93.8C371.669 94.6267 371.903 95.6 371.903 96.72C371.903 96.8267 371.896 96.9467 371.883 97.08C371.883 97.2133 371.876 97.34 371.863 97.46H362.963V95.8H370.543L369.563 96.32C369.576 95.7067 369.449 95.1667 369.183 94.7C368.916 94.2333 368.549 93.8667 368.083 93.6C367.629 93.3333 367.103 93.2 366.503 93.2C365.889 93.2 365.349 93.3333 364.883 93.6C364.429 93.8667 364.069 94.24 363.803 94.72C363.549 95.1867 363.423 95.74 363.423 96.38V96.78C363.423 97.42 363.569 97.9867 363.863 98.48C364.156 98.9733 364.569 99.3533 365.103 99.62C365.636 99.8867 366.249 100.02 366.943 100.02C367.543 100.02 368.083 99.9267 368.563 99.74C369.043 99.5533 369.469 99.26 369.843 98.86L371.183 100.4C370.703 100.96 370.096 101.393 369.363 101.7C368.643 101.993 367.816 102.14 366.883 102.14ZM374.304 102V91.32H376.684V94.26L376.404 93.4C376.724 92.68 377.224 92.1333 377.904 91.76C378.597 91.3867 379.457 91.2 380.484 91.2V93.58C380.377 93.5533 380.277 93.54 380.184 93.54C380.091 93.5267 379.997 93.52 379.904 93.52C378.957 93.52 378.204 93.8 377.644 94.36C377.084 94.9067 376.804 95.7267 376.804 96.82V102H374.304ZM385.355 102L381.435 91.32H383.795L387.155 100.74H386.035L389.555 91.32H391.655L395.075 100.74H393.975L397.435 91.32H399.655L395.715 102H393.315L390.195 93.66H390.935L387.755 102H385.355ZM406.101 102.14C404.915 102.14 403.875 101.907 402.981 101.44C402.101 100.96 401.415 100.307 400.921 99.48C400.441 98.6533 400.201 97.7133 400.201 96.66C400.201 95.5933 400.435 94.6533 400.901 93.84C401.381 93.0133 402.035 92.3667 402.861 91.9C403.701 91.4333 404.655 91.2 405.721 91.2C406.761 91.2 407.688 91.4267 408.501 91.88C409.315 92.3333 409.955 92.9733 410.421 93.8C410.888 94.6267 411.121 95.6 411.121 96.72C411.121 96.8267 411.115 96.9467 411.101 97.08C411.101 97.2133 411.095 97.34 411.081 97.46H402.181V95.8H409.761L408.781 96.32C408.795 95.7067 408.668 95.1667 408.401 94.7C408.135 94.2333 407.768 93.8667 407.301 93.6C406.848 93.3333 406.321 93.2 405.721 93.2C405.108 93.2 404.568 93.3333 404.101 93.6C403.648 93.8667 403.288 94.24 403.021 94.72C402.768 95.1867 402.641 95.74 402.641 96.38V96.78C402.641 97.42 402.788 97.9867 403.081 98.48C403.375 98.9733 403.788 99.3533 404.321 99.62C404.855 99.8867 405.468 100.02 406.161 100.02C406.761 100.02 407.301 99.9267 407.781 99.74C408.261 99.5533 408.688 99.26 409.061 98.86L410.401 100.4C409.921 100.96 409.315 101.393 408.581 101.7C407.861 101.993 407.035 102.14 406.101 102.14ZM413.523 102V91.32H416.023V102H413.523ZM414.783 89.56C414.316 89.56 413.929 89.4133 413.623 89.12C413.329 88.8267 413.183 88.4733 413.183 88.06C413.183 87.6333 413.329 87.28 413.623 87C413.929 86.7067 414.316 86.56 414.783 86.56C415.249 86.56 415.629 86.7 415.923 86.98C416.229 87.2467 416.383 87.5867 416.383 88C416.383 88.44 416.236 88.8133 415.943 89.12C415.649 89.4133 415.263 89.56 414.783 89.56ZM424.144 106.02C423.157 106.02 422.191 105.887 421.244 105.62C420.311 105.367 419.544 104.993 418.944 104.5L420.064 102.62C420.531 103.007 421.117 103.313 421.824 103.54C422.544 103.78 423.271 103.9 424.004 103.9C425.177 103.9 426.037 103.627 426.584 103.08C427.131 102.547 427.404 101.74 427.404 100.66V98.76L427.604 96.34L427.524 93.92V91.32H429.904V100.38C429.904 102.313 429.411 103.733 428.424 104.64C427.437 105.56 426.011 106.02 424.144 106.02ZM423.824 101.52C422.811 101.52 421.891 101.307 421.064 100.88C420.251 100.44 419.604 99.8333 419.124 99.06C418.657 98.2867 418.424 97.38 418.424 96.34C418.424 95.3133 418.657 94.4133 419.124 93.64C419.604 92.8667 420.251 92.2667 421.064 91.84C421.891 91.4133 422.811 91.2 423.824 91.2C424.731 91.2 425.544 91.38 426.264 91.74C426.984 92.1 427.557 92.66 427.984 93.42C428.424 94.18 428.644 95.1533 428.644 96.34C428.644 97.5267 428.424 98.5067 427.984 99.28C427.557 100.04 426.984 100.607 426.264 100.98C425.544 101.34 424.731 101.52 423.824 101.52ZM424.204 99.4C424.831 99.4 425.391 99.2733 425.884 99.02C426.377 98.7533 426.757 98.3933 427.024 97.94C427.304 97.4733 427.444 96.94 427.444 96.34C427.444 95.74 427.304 95.2133 427.024 94.76C426.757 94.2933 426.377 93.94 425.884 93.7C425.391 93.4467 424.831 93.32 424.204 93.32C423.577 93.32 423.011 93.4467 422.504 93.7C422.011 93.94 421.624 94.2933 421.344 94.76C421.077 95.2133 420.944 95.74 420.944 96.34C420.944 96.94 421.077 97.4733 421.344 97.94C421.624 98.3933 422.011 98.7533 422.504 99.02C423.011 99.2733 423.577 99.4 424.204 99.4ZM439.251 91.2C440.104 91.2 440.864 91.3667 441.531 91.7C442.211 92.0333 442.744 92.5467 443.131 93.24C443.517 93.92 443.711 94.8 443.711 95.88V102H441.211V96.2C441.211 95.2533 440.984 94.5467 440.531 94.08C440.091 93.6133 439.471 93.38 438.671 93.38C438.084 93.38 437.564 93.5 437.111 93.74C436.657 93.98 436.304 94.34 436.051 94.82C435.811 95.2867 435.691 95.88 435.691 96.6V102H433.191V87.16H435.691V94.2L435.151 93.32C435.524 92.64 436.064 92.12 436.771 91.76C437.491 91.3867 438.317 91.2 439.251 91.2ZM450.902 102.14C449.729 102.14 448.822 101.84 448.182 101.24C447.542 100.627 447.222 99.7267 447.222 98.54V88.96H449.722V98.48C449.722 98.9867 449.849 99.38 450.102 99.66C450.369 99.94 450.736 100.08 451.202 100.08C451.762 100.08 452.229 99.9333 452.602 99.64L453.302 101.42C453.009 101.66 452.649 101.84 452.222 101.96C451.796 102.08 451.356 102.14 450.902 102.14ZM445.462 93.4V91.4H452.582V93.4H445.462Z" fill="black" fill-opacity="0.85"/>
<path d="M356.72 130H359.32V144H356.72V130ZM349.48 144H346.88V130H349.48V144ZM356.92 138H349.26V135.78H356.92V138ZM367.851 144.14C366.665 144.14 365.625 143.907 364.731 143.44C363.851 142.96 363.165 142.307 362.671 141.48C362.191 140.653 361.951 139.713 361.951 138.66C361.951 137.593 362.185 136.653 362.651 135.84C363.131 135.013 363.785 134.367 364.611 133.9C365.451 133.433 366.405 133.2 367.471 133.2C368.511 133.2 369.438 133.427 370.251 133.88C371.065 134.333 371.705 134.973 372.171 135.8C372.638 136.627 372.871 137.6 372.871 138.72C372.871 138.827 372.865 138.947 372.851 139.08C372.851 139.213 372.845 139.34 372.831 139.46H363.931V137.8H371.511L370.531 138.32C370.545 137.707 370.418 137.167 370.151 136.7C369.885 136.233 369.518 135.867 369.051 135.6C368.598 135.333 368.071 135.2 367.471 135.2C366.858 135.2 366.318 135.333 365.851 135.6C365.398 135.867 365.038 136.24 364.771 136.72C364.518 137.187 364.391 137.74 364.391 138.38V138.78C364.391 139.42 364.538 139.987 364.831 140.48C365.125 140.973 365.538 141.353 366.071 141.62C366.605 141.887 367.218 142.02 367.911 142.02C368.511 142.02 369.051 141.927 369.531 141.74C370.011 141.553 370.438 141.26 370.811 140.86L372.151 142.4C371.671 142.96 371.065 143.393 370.331 143.7C369.611 143.993 368.785 144.14 367.851 144.14ZM381.56 144V141.84L381.42 141.38V137.6C381.42 136.867 381.2 136.3 380.76 135.9C380.32 135.487 379.653 135.28 378.76 135.28C378.16 135.28 377.567 135.373 376.98 135.56C376.407 135.747 375.92 136.007 375.52 136.34L374.54 134.52C375.113 134.08 375.793 133.753 376.58 133.54C377.38 133.313 378.207 133.2 379.06 133.2C380.607 133.2 381.8 133.573 382.64 134.32C383.493 135.053 383.92 136.193 383.92 137.74V144H381.56ZM378.2 144.14C377.4 144.14 376.7 144.007 376.1 143.74C375.5 143.46 375.033 143.08 374.7 142.6C374.38 142.107 374.22 141.553 374.22 140.94C374.22 140.34 374.36 139.8 374.64 139.32C374.933 138.84 375.407 138.46 376.06 138.18C376.713 137.9 377.58 137.76 378.66 137.76H381.76V139.42H378.84C377.987 139.42 377.413 139.56 377.12 139.84C376.827 140.107 376.68 140.44 376.68 140.84C376.68 141.293 376.86 141.653 377.22 141.92C377.58 142.187 378.08 142.32 378.72 142.32C379.333 142.32 379.88 142.18 380.36 141.9C380.853 141.62 381.207 141.207 381.42 140.66L381.84 142.16C381.6 142.787 381.167 143.273 380.54 143.62C379.927 143.967 379.147 144.14 378.2 144.14ZM387.128 144V129.16H389.628V144H387.128ZM397.457 144.14C396.284 144.14 395.377 143.84 394.737 143.24C394.097 142.627 393.777 141.727 393.777 140.54V130.96H396.277V140.48C396.277 140.987 396.404 141.38 396.657 141.66C396.924 141.94 397.29 142.08 397.757 142.08C398.317 142.08 398.784 141.933 399.157 141.64L399.857 143.42C399.564 143.66 399.204 143.84 398.777 143.96C398.35 144.08 397.91 144.14 397.457 144.14ZM392.017 135.4V133.4H399.137V135.4H392.017ZM407.973 133.2C408.827 133.2 409.587 133.367 410.253 133.7C410.933 134.033 411.467 134.547 411.853 135.24C412.24 135.92 412.433 136.8 412.433 137.88V144H409.933V138.2C409.933 137.253 409.707 136.547 409.253 136.08C408.813 135.613 408.193 135.38 407.393 135.38C406.807 135.38 406.287 135.5 405.833 135.74C405.38 135.98 405.027 136.34 404.773 136.82C404.533 137.287 404.413 137.88 404.413 138.6V144H401.913V129.16H404.413V136.2L403.873 135.32C404.247 134.64 404.787 134.12 405.493 133.76C406.213 133.387 407.04 133.2 407.973 133.2ZM416.29 148.02C415.77 148.02 415.25 147.933 414.73 147.76C414.21 147.587 413.776 147.347 413.43 147.04L414.43 145.2C414.683 145.427 414.97 145.607 415.29 145.74C415.61 145.873 415.936 145.94 416.27 145.94C416.723 145.94 417.09 145.827 417.37 145.6C417.65 145.373 417.91 144.993 418.15 144.46L418.77 143.06L418.97 142.76L423.01 133.32H425.41L420.41 144.86C420.076 145.66 419.703 146.293 419.29 146.76C418.89 147.227 418.436 147.553 417.93 147.74C417.436 147.927 416.89 148.02 416.29 148.02ZM418.49 144.38L413.67 133.32H416.27L420.19 142.54L418.49 144.38Z" fill="black" fill-opacity="0.85"/>
<path d="M333.44 198.2C332.347 198.2 331.34 198.02 330.42 197.66C329.5 197.3 328.7 196.8 328.02 196.16C327.34 195.507 326.813 194.747 326.44 193.88C326.067 193 325.88 192.04 325.88 191C325.88 189.96 326.067 189.007 326.44 188.14C326.813 187.26 327.34 186.5 328.02 185.86C328.7 185.207 329.5 184.7 330.42 184.34C331.34 183.98 332.34 183.8 333.42 183.8C334.513 183.8 335.513 183.98 336.42 184.34C337.34 184.7 338.14 185.207 338.82 185.86C339.5 186.5 340.027 187.26 340.4 188.14C340.773 189.007 340.96 189.96 340.96 191C340.96 192.04 340.773 193 340.4 193.88C340.027 194.76 339.5 195.52 338.82 196.16C338.14 196.8 337.34 197.3 336.42 197.66C335.513 198.02 334.52 198.2 333.44 198.2ZM333.42 195.92C334.127 195.92 334.78 195.8 335.38 195.56C335.98 195.32 336.5 194.98 336.94 194.54C337.38 194.087 337.72 193.567 337.96 192.98C338.213 192.38 338.34 191.72 338.34 191C338.34 190.28 338.213 189.627 337.96 189.04C337.72 188.44 337.38 187.92 336.94 187.48C336.5 187.027 335.98 186.68 335.38 186.44C334.78 186.2 334.127 186.08 333.42 186.08C332.713 186.08 332.06 186.2 331.46 186.44C330.873 186.68 330.353 187.027 329.9 187.48C329.46 187.92 329.113 188.44 328.86 189.04C328.62 189.627 328.5 190.28 328.5 191C328.5 191.707 328.62 192.36 328.86 192.96C329.113 193.56 329.46 194.087 329.9 194.54C330.34 194.98 330.86 195.32 331.46 195.56C332.06 195.8 332.713 195.92 333.42 195.92ZM346.316 198L341.736 187.32H344.336L348.276 196.74H346.996L351.076 187.32H353.476L348.896 198H346.316ZM359.765 198.14C358.579 198.14 357.539 197.907 356.645 197.44C355.765 196.96 355.079 196.307 354.585 195.48C354.105 194.653 353.865 193.713 353.865 192.66C353.865 191.593 354.099 190.653 354.565 189.84C355.045 189.013 355.699 188.367 356.525 187.9C357.365 187.433 358.319 187.2 359.385 187.2C360.425 187.2 361.352 187.427 362.165 187.88C362.979 188.333 363.619 188.973 364.085 189.8C364.552 190.627 364.785 191.6 364.785 192.72C364.785 192.827 364.779 192.947 364.765 193.08C364.765 193.213 364.759 193.34 364.745 193.46H355.845V191.8H363.425L362.445 192.32C362.459 191.707 362.332 191.167 362.065 190.7C361.799 190.233 361.432 189.867 360.965 189.6C360.512 189.333 359.985 189.2 359.385 189.2C358.772 189.2 358.232 189.333 357.765 189.6C357.312 189.867 356.952 190.24 356.685 190.72C356.432 191.187 356.305 191.74 356.305 192.38V192.78C356.305 193.42 356.452 193.987 356.745 194.48C357.039 194.973 357.452 195.353 357.985 195.62C358.519 195.887 359.132 196.02 359.825 196.02C360.425 196.02 360.965 195.927 361.445 195.74C361.925 195.553 362.352 195.26 362.725 194.86L364.065 196.4C363.585 196.96 362.979 197.393 362.245 197.7C361.525 197.993 360.699 198.14 359.765 198.14ZM367.187 198V187.32H369.567V190.26L369.287 189.4C369.607 188.68 370.107 188.133 370.787 187.76C371.48 187.387 372.34 187.2 373.367 187.2V189.58C373.26 189.553 373.16 189.54 373.067 189.54C372.974 189.527 372.88 189.52 372.787 189.52C371.84 189.52 371.087 189.8 370.527 190.36C369.967 190.907 369.687 191.727 369.687 192.82V198H367.187ZM378.238 198L374.318 187.32H376.678L380.038 196.74H378.918L382.438 187.32H384.538L387.958 196.74H386.858L390.318 187.32H392.538L388.598 198H386.198L383.078 189.66H383.818L380.638 198H378.238ZM398.984 198.14C397.798 198.14 396.758 197.907 395.864 197.44C394.984 196.96 394.298 196.307 393.804 195.48C393.324 194.653 393.084 193.713 393.084 192.66C393.084 191.593 393.318 190.653 393.784 189.84C394.264 189.013 394.918 188.367 395.744 187.9C396.584 187.433 397.538 187.2 398.604 187.2C399.644 187.2 400.571 187.427 401.384 187.88C402.198 188.333 402.838 188.973 403.304 189.8C403.771 190.627 404.004 191.6 404.004 192.72C404.004 192.827 403.998 192.947 403.984 193.08C403.984 193.213 403.978 193.34 403.964 193.46H395.064V191.8H402.644L401.664 192.32C401.678 191.707 401.551 191.167 401.284 190.7C401.018 190.233 400.651 189.867 400.184 189.6C399.731 189.333 399.204 189.2 398.604 189.2C397.991 189.2 397.451 189.333 396.984 189.6C396.531 189.867 396.171 190.24 395.904 190.72C395.651 191.187 395.524 191.74 395.524 192.38V192.78C395.524 193.42 395.671 193.987 395.964 194.48C396.258 194.973 396.671 195.353 397.204 195.62C397.738 195.887 398.351 196.02 399.044 196.02C399.644 196.02 400.184 195.927 400.664 195.74C401.144 195.553 401.571 195.26 401.944 194.86L403.284 196.4C402.804 196.96 402.198 197.393 401.464 197.7C400.744 197.993 399.918 198.14 398.984 198.14ZM406.406 198V187.32H408.906V198H406.406ZM407.666 185.56C407.199 185.56 406.812 185.413 406.506 185.12C406.212 184.827 406.066 184.473 406.066 184.06C406.066 183.633 406.212 183.28 406.506 183C406.812 182.707 407.199 182.56 407.666 182.56C408.132 182.56 408.512 182.7 408.806 182.98C409.112 183.247 409.266 183.587 409.266 184C409.266 184.44 409.119 184.813 408.826 185.12C408.532 185.413 408.146 185.56 407.666 185.56ZM417.027 202.02C416.04 202.02 415.074 201.887 414.127 201.62C413.194 201.367 412.427 200.993 411.827 200.5L412.947 198.62C413.414 199.007 414 199.313 414.707 199.54C415.427 199.78 416.154 199.9 416.887 199.9C418.06 199.9 418.92 199.627 419.467 199.08C420.014 198.547 420.287 197.74 420.287 196.66V194.76L420.487 192.34L420.407 189.92V187.32H422.787V196.38C422.787 198.313 422.294 199.733 421.307 200.64C420.32 201.56 418.894 202.02 417.027 202.02ZM416.707 197.52C415.694 197.52 414.774 197.307 413.947 196.88C413.134 196.44 412.487 195.833 412.007 195.06C411.54 194.287 411.307 193.38 411.307 192.34C411.307 191.313 411.54 190.413 412.007 189.64C412.487 188.867 413.134 188.267 413.947 187.84C414.774 187.413 415.694 187.2 416.707 187.2C417.614 187.2 418.427 187.38 419.147 187.74C419.867 188.1 420.44 188.66 420.867 189.42C421.307 190.18 421.527 191.153 421.527 192.34C421.527 193.527 421.307 194.507 420.867 195.28C420.44 196.04 419.867 196.607 419.147 196.98C418.427 197.34 417.614 197.52 416.707 197.52ZM417.087 195.4C417.714 195.4 418.274 195.273 418.767 195.02C419.26 194.753 419.64 194.393 419.907 193.94C420.187 193.473 420.327 192.94 420.327 192.34C420.327 191.74 420.187 191.213 419.907 190.76C419.64 190.293 419.26 189.94 418.767 189.7C418.274 189.447 417.714 189.32 417.087 189.32C416.46 189.32 415.894 189.447 415.387 189.7C414.894 189.94 414.507 190.293 414.227 190.76C413.96 191.213 413.827 191.74 413.827 192.34C413.827 192.94 413.96 193.473 414.227 193.94C414.507 194.393 414.894 194.753 415.387 195.02C415.894 195.273 416.46 195.4 417.087 195.4ZM432.134 187.2C432.987 187.2 433.747 187.367 434.414 187.7C435.094 188.033 435.627 188.547 436.014 189.24C436.4 189.92 436.594 190.8 436.594 191.88V198H434.094V192.2C434.094 191.253 433.867 190.547 433.414 190.08C432.974 189.613 432.354 189.38 431.554 189.38C430.967 189.38 430.447 189.5 429.994 189.74C429.54 189.98 429.187 190.34 428.934 190.82C428.694 191.287 428.574 191.88 428.574 192.6V198H426.074V183.16H428.574V190.2L428.034 189.32C428.407 188.64 428.947 188.12 429.654 187.76C430.374 187.387 431.2 187.2 432.134 187.2ZM443.785 198.14C442.612 198.14 441.705 197.84 441.065 197.24C440.425 196.627 440.105 195.727 440.105 194.54V184.96H442.605V194.48C442.605 194.987 442.732 195.38 442.985 195.66C443.252 195.94 443.618 196.08 444.085 196.08C444.645 196.08 445.112 195.933 445.485 195.64L446.185 197.42C445.892 197.66 445.532 197.84 445.105 197.96C444.678 198.08 444.238 198.14 443.785 198.14ZM438.345 189.4V187.4H445.465V189.4H438.345Z" fill="black" fill-opacity="0.85"/>
<path d="M361.44 241.2C360.347 241.2 359.34 241.02 358.42 240.66C357.5 240.3 356.7 239.8 356.02 239.16C355.34 238.507 354.813 237.747 354.44 236.88C354.067 236 353.88 235.04 353.88 234C353.88 232.96 354.067 232.007 354.44 231.14C354.813 230.26 355.34 229.5 356.02 228.86C356.7 228.207 357.5 227.7 358.42 227.34C359.34 226.98 360.34 226.8 361.42 226.8C362.513 226.8 363.513 226.98 364.42 227.34C365.34 227.7 366.14 228.207 366.82 228.86C367.5 229.5 368.027 230.26 368.4 231.14C368.773 232.007 368.96 232.96 368.96 234C368.96 235.04 368.773 236 368.4 236.88C368.027 237.76 367.5 238.52 366.82 239.16C366.14 239.8 365.34 240.3 364.42 240.66C363.513 241.02 362.52 241.2 361.44 241.2ZM361.42 238.92C362.127 238.92 362.78 238.8 363.38 238.56C363.98 238.32 364.5 237.98 364.94 237.54C365.38 237.087 365.72 236.567 365.96 235.98C366.213 235.38 366.34 234.72 366.34 234C366.34 233.28 366.213 232.627 365.96 232.04C365.72 231.44 365.38 230.92 364.94 230.48C364.5 230.027 363.98 229.68 363.38 229.44C362.78 229.2 362.127 229.08 361.42 229.08C360.713 229.08 360.06 229.2 359.46 229.44C358.873 229.68 358.353 230.027 357.9 230.48C357.46 230.92 357.113 231.44 356.86 232.04C356.62 232.627 356.5 233.28 356.5 234C356.5 234.707 356.62 235.36 356.86 235.96C357.113 236.56 357.46 237.087 357.9 237.54C358.34 237.98 358.86 238.32 359.46 238.56C360.06 238.8 360.713 238.92 361.42 238.92ZM377.396 241.14C376.489 241.14 375.683 240.94 374.976 240.54C374.269 240.14 373.709 239.54 373.296 238.74C372.896 237.927 372.696 236.9 372.696 235.66C372.696 234.407 372.903 233.38 373.316 232.58C373.743 231.78 374.309 231.187 375.016 230.8C375.736 230.4 376.529 230.2 377.396 230.2C378.449 230.2 379.376 230.427 380.176 230.88C380.989 231.333 381.629 231.967 382.096 232.78C382.576 233.593 382.816 234.553 382.816 235.66C382.816 236.767 382.576 237.727 382.096 238.54C381.629 239.353 380.989 239.993 380.176 240.46C379.376 240.913 378.449 241.14 377.396 241.14ZM371.476 241V226.16H373.976V232.8L373.776 235.64L373.856 238.48V241H371.476ZM377.116 239C377.716 239 378.249 238.867 378.716 238.6C379.196 238.333 379.576 237.947 379.856 237.44C380.136 236.933 380.276 236.34 380.276 235.66C380.276 234.967 380.136 234.373 379.856 233.88C379.576 233.373 379.196 232.987 378.716 232.72C378.249 232.453 377.716 232.32 377.116 232.32C376.516 232.32 375.976 232.453 375.496 232.72C375.016 232.987 374.636 233.373 374.356 233.88C374.076 234.373 373.936 234.967 373.936 235.66C373.936 236.34 374.076 236.933 374.356 237.44C374.636 237.947 375.016 238.333 375.496 238.6C375.976 238.867 376.516 239 377.116 239ZM390.207 241.14C389.02 241.14 387.98 240.907 387.087 240.44C386.207 239.96 385.52 239.307 385.027 238.48C384.547 237.653 384.307 236.713 384.307 235.66C384.307 234.593 384.54 233.653 385.007 232.84C385.487 232.013 386.14 231.367 386.967 230.9C387.807 230.433 388.76 230.2 389.827 230.2C390.867 230.2 391.794 230.427 392.607 230.88C393.42 231.333 394.06 231.973 394.527 232.8C394.994 233.627 395.227 234.6 395.227 235.72C395.227 235.827 395.22 235.947 395.207 236.08C395.207 236.213 395.2 236.34 395.187 236.46H386.287V234.8H393.867L392.887 235.32C392.9 234.707 392.774 234.167 392.507 233.7C392.24 233.233 391.874 232.867 391.407 232.6C390.954 232.333 390.427 232.2 389.827 232.2C389.214 232.2 388.674 232.333 388.207 232.6C387.754 232.867 387.394 233.24 387.127 233.72C386.874 234.187 386.747 234.74 386.747 235.38V235.78C386.747 236.42 386.894 236.987 387.187 237.48C387.48 237.973 387.894 238.353 388.427 238.62C388.96 238.887 389.574 239.02 390.267 239.02C390.867 239.02 391.407 238.927 391.887 238.74C392.367 238.553 392.794 238.26 393.167 237.86L394.507 239.4C394.027 239.96 393.42 240.393 392.687 240.7C391.967 240.993 391.14 241.14 390.207 241.14ZM400.928 241.14C400.035 241.14 399.175 241.027 398.348 240.8C397.535 240.56 396.888 240.273 396.408 239.94L397.368 238.04C397.848 238.347 398.422 238.6 399.088 238.8C399.755 239 400.422 239.1 401.088 239.1C401.875 239.1 402.442 238.993 402.788 238.78C403.148 238.567 403.328 238.28 403.328 237.92C403.328 237.627 403.208 237.407 402.968 237.26C402.728 237.1 402.415 236.98 402.028 236.9C401.642 236.82 401.208 236.747 400.728 236.68C400.262 236.613 399.788 236.527 399.308 236.42C398.842 236.3 398.415 236.133 398.028 235.92C397.642 235.693 397.328 235.393 397.088 235.02C396.848 234.647 396.728 234.153 396.728 233.54C396.728 232.86 396.922 232.273 397.308 231.78C397.695 231.273 398.235 230.887 398.928 230.62C399.635 230.34 400.468 230.2 401.428 230.2C402.148 230.2 402.875 230.28 403.608 230.44C404.342 230.6 404.948 230.827 405.428 231.12L404.468 233.02C403.962 232.713 403.448 232.507 402.928 232.4C402.422 232.28 401.915 232.22 401.408 232.22C400.648 232.22 400.082 232.333 399.708 232.56C399.348 232.787 399.168 233.073 399.168 233.42C399.168 233.74 399.288 233.98 399.528 234.14C399.768 234.3 400.082 234.427 400.468 234.52C400.855 234.613 401.282 234.693 401.748 234.76C402.228 234.813 402.702 234.9 403.168 235.02C403.635 235.14 404.062 235.307 404.448 235.52C404.848 235.72 405.168 236.007 405.408 236.38C405.648 236.753 405.768 237.24 405.768 237.84C405.768 238.507 405.568 239.087 405.168 239.58C404.782 240.073 404.228 240.46 403.508 240.74C402.788 241.007 401.928 241.14 400.928 241.14ZM412.941 241.14C411.755 241.14 410.715 240.907 409.821 240.44C408.941 239.96 408.255 239.307 407.761 238.48C407.281 237.653 407.041 236.713 407.041 235.66C407.041 234.593 407.275 233.653 407.741 232.84C408.221 232.013 408.875 231.367 409.701 230.9C410.541 230.433 411.495 230.2 412.561 230.2C413.601 230.2 414.528 230.427 415.341 230.88C416.155 231.333 416.795 231.973 417.261 232.8C417.728 233.627 417.961 234.6 417.961 235.72C417.961 235.827 417.955 235.947 417.941 236.08C417.941 236.213 417.935 236.34 417.921 236.46H409.021V234.8H416.601L415.621 235.32C415.635 234.707 415.508 234.167 415.241 233.7C414.975 233.233 414.608 232.867 414.141 232.6C413.688 232.333 413.161 232.2 412.561 232.2C411.948 232.2 411.408 232.333 410.941 232.6C410.488 232.867 410.128 233.24 409.861 233.72C409.608 234.187 409.481 234.74 409.481 235.38V235.78C409.481 236.42 409.628 236.987 409.921 237.48C410.215 237.973 410.628 238.353 411.161 238.62C411.695 238.887 412.308 239.02 413.001 239.02C413.601 239.02 414.141 238.927 414.621 238.74C415.101 238.553 415.528 238.26 415.901 237.86L417.241 239.4C416.761 239.96 416.155 240.393 415.421 240.7C414.701 240.993 413.875 241.14 412.941 241.14Z" fill="black" fill-opacity="0.85"/>
<path d="M32.28 241.2C31.2933 241.2 30.3267 241.06 29.38 240.78C28.4467 240.487 27.66 240.087 27.02 239.58L28.14 237.56C28.6467 237.973 29.26 238.307 29.98 238.56C30.7 238.813 31.4533 238.94 32.24 238.94C33.1733 238.94 33.9 238.753 34.42 238.38C34.94 237.993 35.2 237.473 35.2 236.82C35.2 236.18 34.96 235.673 34.48 235.3C34 234.927 33.2267 234.74 32.16 234.74H30.88V232.96L34.88 228.2L35.22 229.18H27.7V227H37.24V228.74L33.24 233.5L31.88 232.7H32.66C34.38 232.7 35.6667 233.087 36.52 233.86C37.3867 234.62 37.82 235.6 37.82 236.8C37.82 237.587 37.62 238.313 37.22 238.98C36.82 239.647 36.2067 240.187 35.38 240.6C34.5667 241 33.5333 241.2 32.28 241.2ZM45.3606 241.2C44.254 241.2 43.254 240.92 42.3606 240.36C41.4806 239.8 40.7873 238.987 40.2806 237.92C39.774 236.84 39.5206 235.533 39.5206 234C39.5206 232.467 39.774 231.167 40.2806 230.1C40.7873 229.02 41.4806 228.2 42.3606 227.64C43.254 227.08 44.254 226.8 45.3606 226.8C46.4806 226.8 47.4806 227.08 48.3606 227.64C49.2406 228.2 49.934 229.02 50.4406 230.1C50.9606 231.167 51.2206 232.467 51.2206 234C51.2206 235.533 50.9606 236.84 50.4406 237.92C49.934 238.987 49.2406 239.8 48.3606 240.36C47.4806 240.92 46.4806 241.2 45.3606 241.2ZM45.3606 238.94C46.014 238.94 46.5806 238.767 47.0606 238.42C47.5406 238.06 47.914 237.513 48.1806 236.78C48.4606 236.047 48.6006 235.12 48.6006 234C48.6006 232.867 48.4606 231.94 48.1806 231.22C47.914 230.487 47.5406 229.947 47.0606 229.6C46.5806 229.24 46.014 229.06 45.3606 229.06C44.734 229.06 44.174 229.24 43.6806 229.6C43.2006 229.947 42.8206 230.487 42.5406 231.22C42.274 231.94 42.1406 232.867 42.1406 234C42.1406 235.12 42.274 236.047 42.5406 236.78C42.8206 237.513 43.2006 238.06 43.6806 238.42C44.174 238.767 44.734 238.94 45.3606 238.94ZM54.3033 241.14C53.8499 241.14 53.4633 240.987 53.1433 240.68C52.8233 240.36 52.6633 239.96 52.6633 239.48C52.6633 238.973 52.8233 238.573 53.1433 238.28C53.4633 237.973 53.8499 237.82 54.3033 237.82C54.7566 237.82 55.1433 237.973 55.4633 238.28C55.7833 238.573 55.9433 238.973 55.9433 239.48C55.9433 239.96 55.7833 240.36 55.4633 240.68C55.1433 240.987 54.7566 241.14 54.3033 241.14ZM63.2317 241.2C62.1251 241.2 61.1251 240.92 60.2317 240.36C59.3517 239.8 58.6584 238.987 58.1517 237.92C57.6451 236.84 57.3917 235.533 57.3917 234C57.3917 232.467 57.6451 231.167 58.1517 230.1C58.6584 229.02 59.3517 228.2 60.2317 227.64C61.1251 227.08 62.1251 226.8 63.2317 226.8C64.3517 226.8 65.3517 227.08 66.2317 227.64C67.1117 228.2 67.8051 229.02 68.3117 230.1C68.8317 231.167 69.0917 232.467 69.0917 234C69.0917 235.533 68.8317 236.84 68.3117 237.92C67.8051 238.987 67.1117 239.8 66.2317 240.36C65.3517 240.92 64.3517 241.2 63.2317 241.2ZM63.2317 238.94C63.8851 238.94 64.4517 238.767 64.9317 238.42C65.4117 238.06 65.7851 237.513 66.0517 236.78C66.3317 236.047 66.4717 235.12 66.4717 234C66.4717 232.867 66.3317 231.94 66.0517 231.22C65.7851 230.487 65.4117 229.947 64.9317 229.6C64.4517 229.24 63.8851 229.06 63.2317 229.06C62.6051 229.06 62.0451 229.24 61.5517 229.6C61.0717 229.947 60.6917 230.487 60.4117 231.22C60.1451 231.94 60.0117 232.867 60.0117 234C60.0117 235.12 60.1451 236.047 60.4117 236.78C60.6917 237.513 61.0717 238.06 61.5517 238.42C62.0451 238.767 62.6051 238.94 63.2317 238.94ZM76.5961 236.48V234.4H82.0961V236.48H76.5961ZM96.9388 241V238.84L96.7988 238.38V234.6C96.7988 233.867 96.5788 233.3 96.1388 232.9C95.6988 232.487 95.0321 232.28 94.1388 232.28C93.5388 232.28 92.9454 232.373 92.3588 232.56C91.7854 232.747 91.2988 233.007 90.8988 233.34L89.9188 231.52C90.4921 231.08 91.1721 230.753 91.9588 230.54C92.7588 230.313 93.5854 230.2 94.4388 230.2C95.9854 230.2 97.1788 230.573 98.0188 231.32C98.8721 232.053 99.2988 233.193 99.2988 234.74V241H96.9388ZM93.5788 241.14C92.7788 241.14 92.0788 241.007 91.4788 240.74C90.8788 240.46 90.4121 240.08 90.0788 239.6C89.7588 239.107 89.5988 238.553 89.5988 237.94C89.5988 237.34 89.7388 236.8 90.0188 236.32C90.3121 235.84 90.7854 235.46 91.4388 235.18C92.0921 234.9 92.9588 234.76 94.0388 234.76H97.1388V236.42H94.2188C93.3654 236.42 92.7921 236.56 92.4988 236.84C92.2054 237.107 92.0588 237.44 92.0588 237.84C92.0588 238.293 92.2388 238.653 92.5988 238.92C92.9588 239.187 93.4588 239.32 94.0988 239.32C94.7121 239.32 95.2588 239.18 95.7388 238.9C96.2321 238.62 96.5854 238.207 96.7988 237.66L97.2188 239.16C96.9788 239.787 96.5454 240.273 95.9188 240.62C95.3054 240.967 94.5254 241.14 93.5788 241.14ZM108.567 230.2C109.421 230.2 110.181 230.367 110.847 230.7C111.527 231.033 112.061 231.547 112.447 232.24C112.834 232.92 113.027 233.8 113.027 234.88V241H110.527V235.2C110.527 234.253 110.301 233.547 109.847 233.08C109.407 232.613 108.787 232.38 107.987 232.38C107.401 232.38 106.881 232.5 106.427 232.74C105.974 232.98 105.621 233.34 105.367 233.82C105.127 234.287 105.007 234.88 105.007 235.6V241H102.507V230.32H104.887V233.2L104.467 232.32C104.841 231.64 105.381 231.12 106.087 230.76C106.807 230.387 107.634 230.2 108.567 230.2ZM120.738 241.14C119.711 241.14 118.785 240.913 117.958 240.46C117.145 239.993 116.505 239.353 116.038 238.54C115.571 237.727 115.338 236.767 115.338 235.66C115.338 234.553 115.571 233.593 116.038 232.78C116.505 231.967 117.145 231.333 117.958 230.88C118.785 230.427 119.711 230.2 120.738 230.2C121.631 230.2 122.431 230.4 123.138 230.8C123.845 231.187 124.405 231.78 124.818 232.58C125.231 233.38 125.438 234.407 125.438 235.66C125.438 236.9 125.238 237.927 124.838 238.74C124.438 239.54 123.885 240.14 123.178 240.54C122.471 240.94 121.658 241.14 120.738 241.14ZM121.038 239C121.638 239 122.171 238.867 122.638 238.6C123.118 238.333 123.498 237.947 123.778 237.44C124.071 236.933 124.218 236.34 124.218 235.66C124.218 234.967 124.071 234.373 123.778 233.88C123.498 233.373 123.118 232.987 122.638 232.72C122.171 232.453 121.638 232.32 121.038 232.32C120.438 232.32 119.898 232.453 119.418 232.72C118.951 232.987 118.571 233.373 118.278 233.88C117.998 234.373 117.858 234.967 117.858 235.66C117.858 236.34 117.998 236.933 118.278 237.44C118.571 237.947 118.951 238.333 119.418 238.6C119.898 238.867 120.438 239 121.038 239ZM124.278 241V238.48L124.378 235.64L124.178 232.8V226.16H126.658V241H124.278ZM133.736 241L140.036 227H142.596L148.916 241H146.196L140.776 228.38H141.816L136.416 241H133.736ZM136.636 237.76L137.336 235.72H144.896L145.596 237.76H136.636ZM156.376 241.14C155.47 241.14 154.663 240.94 153.956 240.54C153.25 240.14 152.69 239.54 152.276 238.74C151.876 237.927 151.676 236.9 151.676 235.66C151.676 234.407 151.883 233.38 152.296 232.58C152.723 231.78 153.29 231.187 153.996 230.8C154.716 230.4 155.51 230.2 156.376 230.2C157.43 230.2 158.356 230.427 159.156 230.88C159.97 231.333 160.61 231.967 161.076 232.78C161.556 233.593 161.796 234.553 161.796 235.66C161.796 236.767 161.556 237.727 161.076 238.54C160.61 239.353 159.97 239.993 159.156 240.46C158.356 240.913 157.43 241.14 156.376 241.14ZM150.456 241V226.16H152.956V232.8L152.756 235.64L152.836 238.48V241H150.456ZM156.096 239C156.696 239 157.23 238.867 157.696 238.6C158.176 238.333 158.556 237.947 158.836 237.44C159.116 236.933 159.256 236.34 159.256 235.66C159.256 234.967 159.116 234.373 158.836 233.88C158.556 233.373 158.176 232.987 157.696 232.72C157.23 232.453 156.696 232.32 156.096 232.32C155.496 232.32 154.956 232.453 154.476 232.72C153.996 232.987 153.616 233.373 153.336 233.88C153.056 234.373 152.916 234.967 152.916 235.66C152.916 236.34 153.056 236.933 153.336 237.44C153.616 237.947 153.996 238.333 154.476 238.6C154.956 238.867 155.496 239 156.096 239ZM168.967 241.14C167.874 241.14 166.901 240.907 166.047 240.44C165.194 239.96 164.521 239.307 164.027 238.48C163.534 237.653 163.287 236.713 163.287 235.66C163.287 234.593 163.534 233.653 164.027 232.84C164.521 232.013 165.194 231.367 166.047 230.9C166.901 230.433 167.874 230.2 168.967 230.2C170.074 230.2 171.054 230.433 171.907 230.9C172.774 231.367 173.447 232.007 173.927 232.82C174.421 233.633 174.667 234.58 174.667 235.66C174.667 236.713 174.421 237.653 173.927 238.48C173.447 239.307 172.774 239.96 171.907 240.44C171.054 240.907 170.074 241.14 168.967 241.14ZM168.967 239C169.581 239 170.127 238.867 170.607 238.6C171.087 238.333 171.461 237.947 171.727 237.44C172.007 236.933 172.147 236.34 172.147 235.66C172.147 234.967 172.007 234.373 171.727 233.88C171.461 233.373 171.087 232.987 170.607 232.72C170.127 232.453 169.587 232.32 168.987 232.32C168.374 232.32 167.827 232.453 167.347 232.72C166.881 232.987 166.507 233.373 166.227 233.88C165.947 234.373 165.807 234.967 165.807 235.66C165.807 236.34 165.947 236.933 166.227 237.44C166.507 237.947 166.881 238.333 167.347 238.6C167.827 238.867 168.367 239 168.967 239ZM179.605 241L175.025 230.32H177.625L181.565 239.74H180.285L184.365 230.32H186.765L182.185 241H179.605ZM193.055 241.14C191.868 241.14 190.828 240.907 189.935 240.44C189.055 239.96 188.368 239.307 187.875 238.48C187.395 237.653 187.155 236.713 187.155 235.66C187.155 234.593 187.388 233.653 187.855 232.84C188.335 232.013 188.988 231.367 189.815 230.9C190.655 230.433 191.608 230.2 192.675 230.2C193.715 230.2 194.641 230.427 195.455 230.88C196.268 231.333 196.908 231.973 197.375 232.8C197.841 233.627 198.075 234.6 198.075 235.72C198.075 235.827 198.068 235.947 198.055 236.08C198.055 236.213 198.048 236.34 198.035 236.46H189.135V234.8H196.715L195.735 235.32C195.748 234.707 195.621 234.167 195.355 233.7C195.088 233.233 194.721 232.867 194.255 232.6C193.801 232.333 193.275 232.2 192.675 232.2C192.061 232.2 191.521 232.333 191.055 232.6C190.601 232.867 190.241 233.24 189.975 233.72C189.721 234.187 189.595 234.74 189.595 235.38V235.78C189.595 236.42 189.741 236.987 190.035 237.48C190.328 237.973 190.741 238.353 191.275 238.62C191.808 238.887 192.421 239.02 193.115 239.02C193.715 239.02 194.255 238.927 194.735 238.74C195.215 238.553 195.641 238.26 196.015 237.86L197.355 239.4C196.875 239.96 196.268 240.393 195.535 240.7C194.815 240.993 193.988 241.14 193.055 241.14Z" fill="black" fill-opacity="0.85"/>
<path d="M66.12 151V138L67.26 139.18H63.16V137H68.72V151H66.12ZM77.1172 151.2C75.9572 151.2 74.9505 151.027 74.0972 150.68C73.2439 150.333 72.5839 149.847 72.1172 149.22C71.6505 148.58 71.4172 147.833 71.4172 146.98C71.4172 146.127 71.6439 145.407 72.0972 144.82C72.5505 144.233 73.2039 143.787 74.0572 143.48C74.9105 143.173 75.9305 143.02 77.1172 143.02C78.3039 143.02 79.3239 143.173 80.1772 143.48C81.0439 143.787 81.7039 144.24 82.1572 144.84C82.6239 145.427 82.8572 146.14 82.8572 146.98C82.8572 147.833 82.6172 148.58 82.1372 149.22C81.6705 149.847 81.0039 150.333 80.1372 150.68C79.2839 151.027 78.2772 151.2 77.1172 151.2ZM77.1172 149.16C78.0772 149.16 78.8372 148.96 79.3972 148.56C79.9572 148.16 80.2372 147.607 80.2372 146.9C80.2372 146.207 79.9572 145.66 79.3972 145.26C78.8372 144.86 78.0772 144.66 77.1172 144.66C76.1572 144.66 75.4039 144.86 74.8572 145.26C74.3105 145.66 74.0372 146.207 74.0372 146.9C74.0372 147.607 74.3105 148.16 74.8572 148.56C75.4039 148.96 76.1572 149.16 77.1172 149.16ZM77.1172 144.38C76.0372 144.38 75.1105 144.24 74.3372 143.96C73.5639 143.667 72.9639 143.247 72.5372 142.7C72.1239 142.14 71.9172 141.473 71.9172 140.7C71.9172 139.9 72.1305 139.213 72.5572 138.64C72.9972 138.053 73.6105 137.6 74.3972 137.28C75.1839 136.96 76.0905 136.8 77.1172 136.8C78.1572 136.8 79.0705 136.96 79.8572 137.28C80.6439 137.6 81.2572 138.053 81.6972 138.64C82.1372 139.213 82.3572 139.9 82.3572 140.7C82.3572 141.473 82.1439 142.14 81.7172 142.7C81.3039 143.247 80.7039 143.667 79.9172 143.96C79.1305 144.24 78.1972 144.38 77.1172 144.38ZM77.1172 142.78C77.9439 142.78 78.5972 142.607 79.0772 142.26C79.5572 141.9 79.7972 141.42 79.7972 140.82C79.7972 140.193 79.5505 139.707 79.0572 139.36C78.5639 139.013 77.9172 138.84 77.1172 138.84C76.3172 138.84 75.6772 139.013 75.1972 139.36C74.7172 139.707 74.4772 140.193 74.4772 140.82C74.4772 141.42 74.7105 141.9 75.1772 142.26C75.6572 142.607 76.3039 142.78 77.1172 142.78ZM86.2994 151.14C85.846 151.14 85.4594 150.987 85.1394 150.68C84.8194 150.36 84.6594 149.96 84.6594 149.48C84.6594 148.973 84.8194 148.573 85.1394 148.28C85.4594 147.973 85.846 147.82 86.2994 147.82C86.7527 147.82 87.1394 147.973 87.4594 148.28C87.7794 148.573 87.9394 148.973 87.9394 149.48C87.9394 149.96 87.7794 150.36 87.4594 150.68C87.1394 150.987 86.7527 151.14 86.2994 151.14ZM94.2622 151.2C93.2755 151.2 92.3089 151.06 91.3622 150.78C90.4289 150.487 89.6422 150.087 89.0022 149.58L90.1022 147.56C90.6089 147.973 91.2222 148.307 91.9422 148.56C92.6755 148.813 93.4355 148.94 94.2222 148.94C95.1422 148.94 95.8622 148.747 96.3822 148.36C96.9155 147.973 97.1822 147.453 97.1822 146.8C97.1822 146.36 97.0689 145.973 96.8422 145.64C96.6289 145.307 96.2422 145.053 95.6822 144.88C95.1355 144.707 94.3822 144.62 93.4222 144.62H90.0422L90.7622 137H98.9822V139.18H91.7222L93.0822 137.94L92.5422 143.64L91.1822 142.42H94.0022C95.3889 142.42 96.5022 142.607 97.3422 142.98C98.1955 143.34 98.8155 143.847 99.2022 144.5C99.6022 145.14 99.8022 145.873 99.8022 146.7C99.8022 147.513 99.6022 148.26 99.2022 148.94C98.8022 149.62 98.1889 150.167 97.3622 150.58C96.5489 150.993 95.5155 151.2 94.2622 151.2ZM107.049 146.48V144.4H112.549V146.48H107.049ZM119.872 151V149.26L125.432 143.98C125.899 143.54 126.245 143.153 126.472 142.82C126.699 142.487 126.845 142.18 126.912 141.9C126.992 141.607 127.032 141.333 127.032 141.08C127.032 140.44 126.812 139.947 126.372 139.6C125.932 139.24 125.285 139.06 124.432 139.06C123.752 139.06 123.132 139.18 122.572 139.42C122.025 139.66 121.552 140.027 121.152 140.52L119.332 139.12C119.879 138.387 120.612 137.82 121.532 137.42C122.465 137.007 123.505 136.8 124.652 136.8C125.665 136.8 126.545 136.967 127.292 137.3C128.052 137.62 128.632 138.08 129.032 138.68C129.445 139.28 129.652 139.993 129.652 140.82C129.652 141.273 129.592 141.727 129.472 142.18C129.352 142.62 129.125 143.087 128.792 143.58C128.459 144.073 127.972 144.627 127.332 145.24L122.552 149.78L122.012 148.8H130.192V151H119.872ZM131.2 147.82V146.02L138.1 137H140.88L134.08 146.02L132.78 145.62H143.88V147.82H131.2ZM138.88 151V147.82L138.96 145.62V142.8H141.4V151H138.88ZM146.924 151.14C146.471 151.14 146.084 150.987 145.764 150.68C145.444 150.36 145.284 149.96 145.284 149.48C145.284 148.973 145.444 148.573 145.764 148.28C146.084 147.973 146.471 147.82 146.924 147.82C147.378 147.82 147.764 147.973 148.084 148.28C148.404 148.573 148.564 148.973 148.564 149.48C148.564 149.96 148.404 150.36 148.084 150.68C147.764 150.987 147.378 151.14 146.924 151.14ZM154.967 136.8C156.247 136.8 157.334 137.073 158.227 137.62C159.134 138.153 159.827 138.933 160.307 139.96C160.787 140.987 161.027 142.253 161.027 143.76C161.027 145.36 160.734 146.713 160.147 147.82C159.574 148.927 158.774 149.767 157.747 150.34C156.721 150.913 155.527 151.2 154.167 151.2C153.461 151.2 152.787 151.127 152.147 150.98C151.507 150.833 150.954 150.607 150.487 150.3L151.447 148.34C151.834 148.593 152.254 148.773 152.707 148.88C153.161 148.973 153.627 149.02 154.107 149.02C155.427 149.02 156.474 148.613 157.247 147.8C158.021 146.987 158.407 145.787 158.407 144.2C158.407 143.947 158.401 143.653 158.387 143.32C158.374 142.973 158.327 142.627 158.247 142.28L159.047 143.16C158.821 143.707 158.494 144.167 158.067 144.54C157.641 144.9 157.141 145.173 156.567 145.36C155.994 145.547 155.361 145.64 154.667 145.64C153.761 145.64 152.941 145.467 152.207 145.12C151.487 144.76 150.914 144.26 150.487 143.62C150.061 142.967 149.847 142.207 149.847 141.34C149.847 140.407 150.074 139.607 150.527 138.94C150.981 138.26 151.594 137.733 152.367 137.36C153.154 136.987 154.021 136.8 154.967 136.8ZM155.107 138.84C154.574 138.84 154.101 138.94 153.687 139.14C153.274 139.327 152.947 139.6 152.707 139.96C152.481 140.307 152.367 140.727 152.367 141.22C152.367 141.953 152.621 142.533 153.127 142.96C153.634 143.387 154.314 143.6 155.167 143.6C155.727 143.6 156.221 143.5 156.647 143.3C157.074 143.087 157.407 142.8 157.647 142.44C157.887 142.067 158.007 141.653 158.007 141.2C158.007 140.76 157.894 140.367 157.667 140.02C157.441 139.66 157.114 139.373 156.687 139.16C156.261 138.947 155.734 138.84 155.107 138.84Z" fill="black" fill-opacity="0.85"/>
</svg>
